<?xml version="1.0" encoding="UTF-8" standalone="no"?><!DOCTYPE svg PUBLIC "-//W3C//DTD SVG 1.1//EN" "http://www.w3.org/Graphics/SVG/1.1/DTD/svg11.dtd"><svg width="100%" height="100%" viewBox="0 0 843 1152" version="1.1" xmlns="http://www.w3.org/2000/svg" xmlns:xlink="http://www.w3.org/1999/xlink" xml:space="preserve" xmlns:serif="http://www.serif.com/" style="fill-rule:evenodd;clip-rule:evenodd;stroke-linecap:round;stroke-linejoin:round;stroke-miterlimit:1.5;"><rect id="Co-optimization-2" serif:id="Co-optimization 2" x="0.139" y="0.351" width="842.264" height="1151.63" style="fill:none;"/><g id="districts"><path d="M505.805,39.471c1.759,1.016 2.842,2.892 2.842,4.921c0.001,7.531 -0.001,25.972 0.001,33.499c-0.001,2.032 -1.084,3.907 -2.843,4.922l-29.009,16.749c-1.759,1.015 -3.926,1.017 -5.685,0.001c-6.52,-3.764 -22.489,-12.985 -29.01,-16.75c-1.757,-1.015 -2.84,-2.891 -2.841,-4.922c0,-7.528 -0.001,-25.968 -0,-33.497c-0.001,-2.031 1.083,-3.908 2.842,-4.924l29.009,-16.749c1.759,-1.015 3.925,-1.014 5.686,0.002c6.517,3.765 22.488,12.984 29.008,16.748Z" style="fill:#911ae6;"/><path d="M296.804,39.471c1.758,1.016 2.841,2.892 2.841,4.921c0.001,7.531 -0.001,25.972 0.001,33.499c-0.001,2.032 -1.084,3.907 -2.843,4.922l-29.009,16.749c-1.759,1.015 -3.926,1.017 -5.685,0.001c-6.52,-3.764 -22.488,-12.985 -29.01,-16.75c-1.757,-1.015 -2.84,-2.891 -2.841,-4.922c0,-7.528 -0,-25.968 0,-33.497c-0.001,-2.031 1.083,-3.908 2.842,-4.924l29.009,-16.749c1.759,-1.015 3.925,-1.014 5.686,0.002c6.518,3.765 22.489,12.984 29.009,16.748Z" style="fill:#e9b22c;"/><path d="M401.728,39.471c1.759,1.016 2.842,2.892 2.842,4.921c0,7.531 -0.001,25.972 0.001,33.499c-0.001,2.032 -1.084,3.907 -2.843,4.922l-29.009,16.749c-1.76,1.015 -3.927,1.017 -5.685,0.001c-6.52,-3.764 -22.489,-12.985 -29.01,-16.75c-1.757,-1.015 -2.84,-2.891 -2.842,-4.922c0.001,-7.528 0,-25.968 0.001,-33.497c-0.002,-2.031 1.082,-3.908 2.841,-4.924l29.01,-16.749c1.759,-1.015 3.925,-1.014 5.685,0.002c6.518,3.765 22.489,12.984 29.009,16.748Z" style="fill:#a7ea44;"/></g><g id="city"><path d="M355.994,1040.5c0.524,-0.906 1.491,-1.464 2.536,-1.464c3.88,-0 13.381,0.001 17.26,-0c1.047,0 2.013,0.558 2.536,1.465l8.629,14.946c0.524,0.906 0.525,2.023 0.001,2.929c-1.939,3.359 -6.69,11.587 -8.63,14.947c-0.523,0.905 -1.49,1.463 -2.536,1.464c-3.879,-0 -13.38,-0 -17.259,-0c-1.046,0 -2.014,-0.558 -2.537,-1.464l-8.629,-14.947c-0.524,-0.906 -0.523,-2.022 0,-2.929c1.94,-3.359 6.69,-11.587 8.629,-14.947Z" style="fill:#911ae6;stroke:#fff;stroke-width:0.4px;"/><path d="M387.071,1058.38c0.524,-0.906 1.49,-1.464 2.536,-1.464c3.88,-0.001 13.381,0 17.259,-0.001c1.047,0.001 2.013,0.559 2.536,1.465l8.63,14.947c0.523,0.906 0.524,2.022 0,2.928c-1.939,3.36 -6.69,11.587 -8.63,14.947c-0.523,0.906 -1.489,1.464 -2.536,1.464c-3.879,0 -13.379,0.001 -17.258,0c-1.047,0.001 -2.014,-0.557 -2.538,-1.464l-8.629,-14.946c-0.523,-0.907 -0.522,-2.023 0.001,-2.93c1.94,-3.358 6.69,-11.587 8.629,-14.946Z" style="fill:#911ae6;stroke:#fff;stroke-width:1px;"/><path d="M325.058,1058.38c0.524,-0.906 1.49,-1.464 2.536,-1.464c3.88,-0.001 13.381,0 17.259,-0.001c1.048,0.001 2.013,0.559 2.537,1.465l8.629,14.947c0.523,0.906 0.524,2.022 0,2.928c-1.939,3.36 -6.69,11.587 -8.63,14.947c-0.523,0.906 -1.489,1.464 -2.536,1.464c-3.878,0 -13.379,0.001 -17.258,0c-1.047,0.001 -2.014,-0.557 -2.537,-1.464l-8.63,-14.946c-0.523,-0.907 -0.522,-2.023 0.001,-2.93c1.94,-3.358 6.69,-11.587 8.629,-14.946Z" style="fill:#e9b22c;stroke:#fff;stroke-width:1px;"/><path d="M325.058,1022.63c0.524,-0.906 1.49,-1.464 2.536,-1.464c3.88,-0.001 13.381,0 17.259,-0.001c1.048,0.001 2.013,0.559 2.537,1.465l8.629,14.947c0.523,0.906 0.524,2.022 0,2.928c-1.939,3.36 -6.69,11.587 -8.63,14.947c-0.523,0.906 -1.489,1.464 -2.536,1.464c-3.878,0 -13.379,0 -17.258,0c-1.047,0.001 -2.014,-0.558 -2.537,-1.464l-8.63,-14.946c-0.523,-0.907 -0.522,-2.023 0.001,-2.93c1.94,-3.358 6.69,-11.587 8.629,-14.946Z" style="fill:#e9b22c;stroke:#fff;stroke-width:1px;"/><path d="M355.994,1076.25c0.524,-0.906 1.491,-1.464 2.536,-1.464c3.88,-0 13.381,0.001 17.26,-0c1.047,0 2.013,0.558 2.536,1.465l8.629,14.946c0.524,0.907 0.525,2.023 0.001,2.929c-1.939,3.359 -6.69,11.587 -8.63,14.947c-0.523,0.905 -1.49,1.463 -2.536,1.464c-3.879,-0 -13.38,0 -17.259,-0c-1.046,0.001 -2.014,-0.558 -2.537,-1.464l-8.629,-14.947c-0.524,-0.906 -0.523,-2.022 0,-2.929c1.94,-3.359 6.69,-11.587 8.629,-14.947Z" style="fill:#a7ea44;stroke:#fff;stroke-width:1px;"/><path d="M387.071,1022.63c0.524,-0.906 1.49,-1.464 2.536,-1.464c3.88,-0.001 13.381,0 17.259,-0.001c1.047,0.001 2.013,0.559 2.536,1.465l8.63,14.947c0.523,0.906 0.524,2.022 0,2.928c-1.939,3.36 -6.69,11.587 -8.63,14.947c-0.523,0.906 -1.489,1.464 -2.536,1.464c-3.879,0 -13.379,0 -17.258,0c-1.047,0.001 -2.014,-0.558 -2.538,-1.464l-8.629,-14.946c-0.523,-0.907 -0.522,-2.023 0.001,-2.93c1.94,-3.358 6.69,-11.587 8.629,-14.946Z" style="fill:#a7ea44;stroke:#fff;stroke-width:1px;"/><path d="M355.994,1040.5c0.524,-0.906 1.491,-1.464 2.536,-1.464c3.88,-0 13.381,0.001 17.26,-0c1.047,0 2.013,0.558 2.536,1.465l8.629,14.946c0.524,0.906 0.525,2.023 0.001,2.929c-1.939,3.359 -6.69,11.587 -8.63,14.947c-0.523,0.905 -1.49,1.463 -2.536,1.464c-3.879,-0 -13.38,-0 -17.259,-0c-1.046,0 -2.014,-0.558 -2.537,-1.464l-8.629,-14.947c-0.524,-0.906 -0.523,-2.022 0,-2.929c1.94,-3.359 6.69,-11.587 8.629,-14.947Z" style="fill:#911ae6;stroke:#fff;stroke-width:1px;"/><path d="M355.994,1004.75c0.524,-0.906 1.491,-1.464 2.536,-1.464c3.88,-0 13.381,0.001 17.26,-0c1.047,0 2.013,0.558 2.536,1.464l8.629,14.947c0.524,0.906 0.525,2.023 0.001,2.929c-1.939,3.359 -6.69,11.587 -8.63,14.947c-0.523,0.905 -1.49,1.463 -2.536,1.464c-3.879,-0 -13.38,-0 -17.259,-0c-1.046,0 -2.014,-0.558 -2.537,-1.465l-8.629,-14.946c-0.524,-0.906 -0.523,-2.022 0,-2.929c1.94,-3.359 6.69,-11.587 8.629,-14.947Z" style="fill:#911ae6;stroke:#fff;stroke-width:1px;"/></g><g id="initialization"><path d="M522.942,182.195l-0,46.7c-0,0.823 -0.668,1.491 -1.491,1.491l-94.995,-0c-0.822,-0 -1.49,-0.668 -1.49,-1.491l-0,-46.7c-0,-0.822 0.668,-1.49 1.49,-1.49l94.995,-0c0.823,-0 1.491,0.668 1.491,1.49Z" style="fill:#dfdfdf;"/><clipPath id="_clip1"><path d="M522.942,182.195l-0,46.7c-0,0.823 -0.668,1.491 -1.491,1.491l-94.995,-0c-0.822,-0 -1.49,-0.668 -1.49,-1.491l-0,-46.7c-0,-0.822 0.668,-1.49 1.49,-1.49l94.995,-0c0.823,-0 1.491,0.668 1.491,1.49Z"/></clipPath><g clip-path="url(#_clip1)"><g transform="matrix(23.5679,0,0,23.5679,507.999,214.084)"></g><text x="439.908px" y="214.084px" style="font-family:'LiberationSans-Bold', 'Liberation Sans';font-weight:700;font-size:23.568px;fill:#fff;">REHO</text></g><path d="M482.954,156.182l-9,9l-9,-9" style="fill:none;stroke:#dfdfdf;stroke-width:4px;stroke-linejoin:miter;stroke-miterlimit:10;"/><path d="M473.954,110.875l-0,54.307" style="fill:none;stroke:#dfdfdf;stroke-width:4px;"/><path d="M418.425,182.195l-0,46.7c-0,0.823 -0.668,1.491 -1.491,1.491l-94.995,-0c-0.823,-0 -1.49,-0.668 -1.49,-1.491l-0,-46.7c-0,-0.822 0.667,-1.49 1.49,-1.49l94.995,-0c0.823,-0 1.491,0.668 1.491,1.49Z" style="fill:#dfdfdf;"/><clipPath id="_clip2"><path d="M418.425,182.195l-0,46.7c-0,0.823 -0.668,1.491 -1.491,1.491l-94.995,-0c-0.823,-0 -1.49,-0.668 -1.49,-1.491l-0,-46.7c-0,-0.822 0.667,-1.49 1.49,-1.49l94.995,-0c0.823,-0 1.491,0.668 1.491,1.49Z"/></clipPath><g clip-path="url(#_clip2)"><g transform="matrix(23.5679,0,0,23.5679,403.482,214.084)"></g><text x="335.391px" y="214.084px" style="font-family:'LiberationSans-Bold', 'Liberation Sans';font-weight:700;font-size:23.568px;fill:#fff;">REHO</text></g><path d="M378.437,156.182l-9,9l-9,-9" style="fill:none;stroke:#dfdfdf;stroke-width:4px;stroke-linejoin:miter;stroke-miterlimit:10;"/><path d="M369.437,110.875l-0,54.307" style="fill:none;stroke:#dfdfdf;stroke-width:4px;"/><path d="M313.94,182.195l0,46.7c0,0.823 -0.668,1.491 -1.49,1.491l-94.996,-0c-0.822,-0 -1.49,-0.668 -1.49,-1.491l-0,-46.7c-0,-0.822 0.668,-1.49 1.49,-1.49l94.996,-0c0.822,-0 1.49,0.668 1.49,1.49Z" style="fill:#dfdfdf;"/><clipPath id="_clip3"><path d="M313.94,182.195l0,46.7c0,0.823 -0.668,1.491 -1.49,1.491l-94.996,-0c-0.822,-0 -1.49,-0.668 -1.49,-1.491l-0,-46.7c-0,-0.822 0.668,-1.49 1.49,-1.49l94.996,-0c0.822,-0 1.49,0.668 1.49,1.49Z"/></clipPath><g clip-path="url(#_clip3)"><g transform="matrix(23.5679,0,0,23.5679,298.998,214.084)"></g><text x="230.906px" y="214.084px" style="font-family:'LiberationSans-Bold', 'Liberation Sans';font-weight:700;font-size:23.568px;fill:#fff;">REHO</text></g><path d="M273.952,156.182l-9,9l-9,-9" style="fill:none;stroke:#dfdfdf;stroke-width:4px;stroke-linejoin:miter;stroke-miterlimit:10;"/><path d="M264.952,110.875l-0,54.307" style="fill:none;stroke:#dfdfdf;stroke-width:4px;"/></g><g id="optim1"><path d="M369.453,330.123l-0,22.728l-104.501,-0l-0,17.556" style="fill:none;stroke:#dfdfdf;stroke-width:4px;stroke-dasharray:4,8,0,0;"/><path d="M369.453,330.123l-0,22.728l104.501,-0l-0,17.556" style="fill:none;stroke:#dfdfdf;stroke-width:4px;stroke-dasharray:4,8,0,0;"/><path d="M369.453,330.123l-0,22.728l-0,-0l-0,17.556" style="fill:none;stroke:#dfdfdf;stroke-width:4px;stroke-dasharray:4,8,0,0;"/><path d="M522.942,371.897l-0,46.7c-0,0.823 -0.668,1.491 -1.491,1.491l-94.995,-0c-0.822,-0 -1.49,-0.668 -1.49,-1.491l-0,-46.7c-0,-0.822 0.668,-1.49 1.49,-1.49l94.995,-0c0.823,-0 1.491,0.668 1.491,1.49Z" style="fill:#dfdfdf;"/><clipPath id="_clip4"><path d="M522.942,371.897l-0,46.7c-0,0.823 -0.668,1.491 -1.491,1.491l-94.995,-0c-0.822,-0 -1.49,-0.668 -1.49,-1.491l-0,-46.7c-0,-0.822 0.668,-1.49 1.49,-1.49l94.995,-0c0.823,-0 1.491,0.668 1.491,1.49Z"/></clipPath><g clip-path="url(#_clip4)"><g transform="matrix(23.5679,0,0,23.5679,507.999,403.786)"></g><text x="439.908px" y="403.786px" style="font-family:'LiberationSans-Bold', 'Liberation Sans';font-weight:700;font-size:23.568px;fill:#fff;">REHO</text></g><path d="M418.425,371.897l-0,46.7c-0,0.823 -0.668,1.491 -1.491,1.491l-94.995,-0c-0.823,-0 -1.49,-0.668 -1.49,-1.491l-0,-46.7c-0,-0.822 0.667,-1.49 1.49,-1.49l94.995,-0c0.823,-0 1.491,0.668 1.491,1.49Z" style="fill:#dfdfdf;"/><clipPath id="_clip5"><path d="M418.425,371.897l-0,46.7c-0,0.823 -0.668,1.491 -1.491,1.491l-94.995,-0c-0.823,-0 -1.49,-0.668 -1.49,-1.491l-0,-46.7c-0,-0.822 0.667,-1.49 1.49,-1.49l94.995,-0c0.823,-0 1.491,0.668 1.491,1.49Z"/></clipPath><g clip-path="url(#_clip5)"><g transform="matrix(23.5679,0,0,23.5679,403.482,403.786)"></g><text x="335.391px" y="403.786px" style="font-family:'LiberationSans-Bold', 'Liberation Sans';font-weight:700;font-size:23.568px;fill:#fff;">REHO</text></g><path d="M313.94,371.897l0,46.7c0,0.823 -0.668,1.491 -1.49,1.491l-94.996,-0c-0.822,-0 -1.49,-0.668 -1.49,-1.491l-0,-46.7c-0,-0.822 0.668,-1.49 1.49,-1.49l94.996,-0c0.822,-0 1.49,0.668 1.49,1.49Z" style="fill:#dfdfdf;"/><clipPath id="_clip6"><path d="M313.94,371.897l0,46.7c0,0.823 -0.668,1.491 -1.49,1.491l-94.996,-0c-0.822,-0 -1.49,-0.668 -1.49,-1.491l-0,-46.7c-0,-0.822 0.668,-1.49 1.49,-1.49l94.996,-0c0.822,-0 1.49,0.668 1.49,1.49Z"/></clipPath><g clip-path="url(#_clip6)"><g transform="matrix(23.5679,0,0,23.5679,298.998,403.786)"></g><text x="230.906px" y="403.786px" style="font-family:'LiberationSans-Bold', 'Liberation Sans';font-weight:700;font-size:23.568px;fill:#fff;">REHO</text></g><path d="M418.441,320.177l-0,9.639c-0,0.169 -0.138,0.307 -0.308,0.307l-97.361,0c-0.169,0 -0.307,-0.138 -0.307,-0.307l-0,-9.639c-0,-0.17 0.138,-0.308 0.307,-0.308l97.361,-0c0.17,-0 0.308,0.138 0.308,0.308Z" style="fill:#dfdfdf;"/></g><g id="optim11" serif:id="optim1"><g><path d="M321.217,512.839l-0,86.083l-56.265,-0l-0,17.556" style="fill:none;stroke:#dfdfdf;stroke-width:4px;stroke-dasharray:4,8,0,0;"/><path d="M369.453,598.922l-45.375,-0l149.876,-0l-0,17.556" style="fill:none;stroke:#dfdfdf;stroke-width:4px;stroke-dasharray:4,8,0,0;"/><path d="M369.453,598.922l-0,-0l-0,17.556" style="fill:none;stroke:#dfdfdf;stroke-width:4px;stroke-dasharray:4,8,0,0;"/></g><g><path d="M469.401,540.221l-0,38.128l-184.416,0l-0,38.129" style="fill:none;stroke:#dfdfdf;stroke-width:4px;"/><path d="M367.951,578.349l126.035,0l0,38.129" style="fill:none;stroke:#dfdfdf;stroke-width:4px;"/><path d="M397.26,578.349l-0.372,38.129" style="fill:none;stroke:#dfdfdf;stroke-width:4px;"/></g><path d="M522.942,617.968l-0,46.7c-0,0.823 -0.668,1.491 -1.491,1.491l-94.995,-0c-0.822,-0 -1.49,-0.668 -1.49,-1.491l-0,-46.7c-0,-0.822 0.668,-1.49 1.49,-1.49l94.995,-0c0.823,-0 1.491,0.668 1.491,1.49Z" style="fill:#dfdfdf;"/><clipPath id="_clip7"><path d="M522.942,617.968l-0,46.7c-0,0.823 -0.668,1.491 -1.491,1.491l-94.995,-0c-0.822,-0 -1.49,-0.668 -1.49,-1.491l-0,-46.7c-0,-0.822 0.668,-1.49 1.49,-1.49l94.995,-0c0.823,-0 1.491,0.668 1.491,1.49Z"/></clipPath><g clip-path="url(#_clip7)"><g transform="matrix(23.5679,0,0,23.5679,507.999,649.857)"></g><text x="439.908px" y="649.857px" style="font-family:'LiberationSans-Bold', 'Liberation Sans';font-weight:700;font-size:23.568px;fill:#fff;">REHO</text></g><path d="M418.425,617.968l-0,46.7c-0,0.823 -0.668,1.491 -1.491,1.491l-94.995,-0c-0.823,-0 -1.49,-0.668 -1.49,-1.491l-0,-46.7c-0,-0.822 0.667,-1.49 1.49,-1.49l94.995,-0c0.823,-0 1.491,0.668 1.491,1.49Z" style="fill:#dfdfdf;"/><clipPath id="_clip8"><path d="M418.425,617.968l-0,46.7c-0,0.823 -0.668,1.491 -1.491,1.491l-94.995,-0c-0.823,-0 -1.49,-0.668 -1.49,-1.491l-0,-46.7c-0,-0.822 0.667,-1.49 1.49,-1.49l94.995,-0c0.823,-0 1.491,0.668 1.491,1.49Z"/></clipPath><g clip-path="url(#_clip8)"><g transform="matrix(23.5679,0,0,23.5679,403.482,649.857)"></g><text x="335.391px" y="649.857px" style="font-family:'LiberationSans-Bold', 'Liberation Sans';font-weight:700;font-size:23.568px;fill:#fff;">REHO</text></g><path d="M313.94,617.968l0,46.7c0,0.823 -0.668,1.491 -1.49,1.491l-94.996,-0c-0.822,-0 -1.49,-0.668 -1.49,-1.491l-0,-46.7c-0,-0.822 0.668,-1.49 1.49,-1.49l94.996,-0c0.822,-0 1.49,0.668 1.49,1.49Z" style="fill:#dfdfdf;"/><clipPath id="_clip9"><path d="M313.94,617.968l0,46.7c0,0.823 -0.668,1.491 -1.49,1.491l-94.996,-0c-0.822,-0 -1.49,-0.668 -1.49,-1.491l-0,-46.7c-0,-0.822 0.668,-1.49 1.49,-1.49l94.996,-0c0.822,-0 1.49,0.668 1.49,1.49Z"/></clipPath><g clip-path="url(#_clip9)"><g transform="matrix(23.5679,0,0,23.5679,298.998,649.857)"></g><text x="230.906px" y="649.857px" style="font-family:'LiberationSans-Bold', 'Liberation Sans';font-weight:700;font-size:23.568px;fill:#fff;">REHO</text></g><path d="M344.37,502.892l-0,9.639c-0,0.17 -0.138,0.308 -0.308,0.308l-45.691,-0c-0.17,-0 -0.307,-0.138 -0.307,-0.308l-0,-9.639c-0,-0.17 0.137,-0.308 0.307,-0.308l45.691,0c0.17,0 0.308,0.138 0.308,0.308Z" style="fill:#dfdfdf;"/></g><path d="M385.187,953.196l-15.75,15.75l-15.75,-15.75" style="fill:none;stroke:#dfdfdf;stroke-width:7px;stroke-linejoin:miter;stroke-miterlimit:10;"/><path d="M369.437,886.732l-0,82.214" style="fill:none;stroke:#dfdfdf;stroke-width:7px;"/><g id="prices"><path d="M348.814,297.142l-9,9l-9,-9" style="fill:none;stroke:#f1cc74;stroke-width:4px;stroke-linejoin:miter;stroke-miterlimit:10;"/><path d="M264.952,237.455l-0,52.876l74.862,-0l0,15.811" style="fill:none;stroke:#f1cc74;stroke-width:4px;stroke-dasharray:4,8,0,0;"/><path d="M408.124,297.142l-9,9l-9,-9" style="fill:none;stroke:#ba65f7;stroke-width:4px;stroke-linejoin:miter;stroke-miterlimit:10;"/><path d="M473.853,237.455l0,52.876l-74.729,-0l-0,15.811" style="fill:none;stroke:#ba65f7;stroke-width:4px;stroke-dasharray:4,8,0,0;"/><rect x="240.977" y="247.65" width="47.951" height="9.297" style="fill:#fff;"/><clipPath id="_clip10"><rect x="240.977" y="247.65" width="47.951" height="9.297"/></clipPath><g clip-path="url(#_clip10)"><g transform="matrix(10.8019,0,0,10.8019,287.64,255.719)"></g><text x="242.264px" y="255.719px" style="font-family:'CourierNewPS-BoldMT', 'Courier New';font-weight:700;font-size:10.802px;fill:#272727;">CHF/kWh</text></g><path d="M378.403,297.142l-9,9l-9,-9" style="fill:none;stroke:#c6f185;stroke-width:4px;stroke-linejoin:miter;stroke-miterlimit:10;"/><path d="M369.403,237.455l-0,68.687" style="fill:none;stroke:#c6f185;stroke-width:4px;stroke-dasharray:4,8,0,0;"/><rect x="345.427" y="247.65" width="47.951" height="9.297" style="fill:#fff;"/><clipPath id="_clip11"><rect x="345.427" y="247.65" width="47.951" height="9.297"/></clipPath><g clip-path="url(#_clip11)"><g transform="matrix(10.8019,0,0,10.8019,392.09,255.719)"></g><text x="346.715px" y="255.719px" style="font-family:'CourierNewPS-BoldMT', 'Courier New';font-weight:700;font-size:10.802px;fill:#272727;">CHF/kWh</text></g><rect x="449.978" y="247.65" width="47.951" height="9.297" style="fill:#fff;"/><clipPath id="_clip12"><rect x="449.978" y="247.65" width="47.951" height="9.297"/></clipPath><g clip-path="url(#_clip12)"><g transform="matrix(10.8019,0,0,10.8019,496.642,255.719)"></g><text x="451.266px" y="255.719px" style="font-family:'CourierNewPS-BoldMT', 'Courier New';font-weight:700;font-size:10.802px;fill:#272727;">CHF/kWh</text></g></g><g id="prices1" serif:id="prices"><path d="M239.919,425.232l0,18.59l68.219,-0l-0,54.616" style="fill:none;stroke:#f1cc74;stroke-width:4px;stroke-dasharray:4,8,0,0;"/><path d="M448.821,425.232l-0,18.59l-111.99,-0l0,54.616" style="fill:none;stroke:#ba65f7;stroke-width:4px;stroke-dasharray:4,8,0,0;"/><path d="M344.37,424.025c-0,1.5 -0,12.763 -0,12.763l-20.702,-0l-0,61.65" style="fill:none;stroke:#c6f185;stroke-width:4px;stroke-dasharray:4,8,0,0;stroke-dashoffset:16;"/></g><g id="loads"><path d="M284.985,426.338l-0,45.859l157.174,0l-0,51.69" style="fill:none;stroke:#f1cc74;stroke-width:4px;"/><path d="M493.886,426.338l0,94.032" style="fill:none;stroke:#ba65f7;stroke-width:4px;"/><path d="M389.435,424.025c0,2.875 0,31.912 0,31.912l79.966,0l-0,64.433" style="fill:none;stroke:#c6f185;stroke-width:4px;"/></g><g transform="matrix(0.490998,0,0,0.490998,-4872.68,-1252.41)"><text x="11194.8px" y="2942.51px" style="font-family:'LiberationSans-Italic', 'Liberation Sans';font-style:italic;font-size:36.66px;fill:#272727;">initialisation</text><text x="11117.4px" y="2988.16px" style="font-family:'LiberationSans-Italic', 'Liberation Sans';font-style:italic;font-size:32.587px;fill:#8a8a8a;">no interactions between</text><g transform="matrix(32.5867,0,0,32.5867,11344.7,3021.81)"></g><text x="11234.3px" y="3021.81px" style="font-family:'LiberationSans-Italic', 'Liberation Sans';font-style:italic;font-size:32.587px;fill:#8a8a8a;">districts</text></g><g transform="matrix(0.490998,0,0,0.490998,-4858.56,-1062.46)"><text x="11155.3px" y="2938.98px" style="font-family:'LiberationSans-Italic', 'Liberation Sans';font-style:italic;font-size:36.66px;fill:#272727;">optimization 1</text><text x="11122.3px" y="2988.16px" style="font-family:'LiberationSans-Italic', 'Liberation Sans';font-style:italic;font-size:36px;fill:#8a8a8a;">EVs can charge in</text><g transform="matrix(36,0,0,36,11375.4,3025.34)"></g><text x="11161.3px" y="3025.34px" style="font-family:'LiberationSans-Italic', 'Liberation Sans';font-style:italic;font-size:36px;fill:#8a8a8a;">other districts</text></g><g transform="matrix(0.490998,0,0,0.490998,-4922.35,-827.631)"><text x="11238.9px" y="2937.28px" style="font-family:'LiberationSans-Italic', 'Liberation Sans';font-style:italic;font-size:36.66px;fill:#272727;">optimization 2 to N</text><text x="11132.6px" y="2986.46px" style="font-family:'LiberationSans-Italic', 'Liberation Sans';font-style:italic;font-size:36px;fill:#8a8a8a;">EVs can charge in other districts</text><text x="11119.6px" y="3035.64px" style="font-family:'LiberationSans-Italic', 'Liberation Sans';font-style:italic;font-size:36px;fill:#8a8a8a;">+ each district supplies the others&apos;</text><g transform="matrix(36,0,0,36,11455.7,3072.81)"></g><text x="11325.6px" y="3072.81px" style="font-family:'LiberationSans-Italic', 'Liberation Sans';font-style:italic;font-size:36px;fill:#8a8a8a;">demand</text></g><g transform="matrix(0.490998,0,0,0.490998,-5443.85,-664.978)"><text x="11264.4px" y="2961.19px" style="font-family:'LiberationSans-Italic', 'Liberation Sans';font-style:italic;font-size:36.66px;fill:#272727;">Repeat N times</text><text x="11140px" y="3011.05px" style="font-family:'LiberationSans-Italic', 'Liberation Sans';font-style:italic;font-size:36.66px;fill:#8a8a8a;">to reach convergence between</text><g transform="matrix(36.6601,0,0,36.6601,11550.7,3048.91)"></g><text x="11230.7px" y="3048.91px" style="font-family:'LiberationSans-Italic', 'Liberation Sans';font-style:italic;font-size:36.66px;fill:#8a8a8a;">demand and supply</text></g><g transform="matrix(0.490998,0,0,0.490998,-5022.26,-542.078)"><text x="11332.9px" y="2942.26px" style="font-family:'LiberationSans-Italic', 'Liberation Sans';font-style:italic;font-size:36.66px;fill:#272727;">Extract results</text><text x="11154.2px" y="2992.12px" style="font-family:'LiberationSans-Italic', 'Liberation Sans';font-style:italic;font-size:36.66px;fill:#8a8a8a;">results of districts <tspan x="11446.2px 11470.7px " y="2992.12px 2992.12px ">A,</tspan> B and C can be</text><text x="11104.6px" y="3029.98px" style="font-family:'LiberationSans-Italic', 'Liberation Sans';font-style:italic;font-size:36.66px;fill:#8a8a8a;">aggregated through the scaling factors</text><text x="11740.5px" y="3029.98px" style="font-family:'LiberationSans-BoldItalic', 'Liberation Sans';font-weight:700;font-style:italic;font-size:36.66px;fill:#8a8a8a;">f</text><text x="11762.9px" y="3029.98px" style="font-family:'LiberationSans-Italic', 'Liberation Sans';font-style:italic;font-size:36.66px;fill:#8a8a8a;">to</text><g transform="matrix(36.6601,0,0,36.6601,11700.7,3067.84)"></g><text x="11197.4px" y="3067.84px" style="font-family:'LiberationSans-Italic', 'Liberation Sans';font-style:italic;font-size:36.66px;fill:#8a8a8a;">obtain results for the whole city</text></g><g transform="matrix(11.7839,0,0,11.7839,302.73,329.265)"></g><text x="188.124px" y="329.265px" style="font-family:'LiberationSans-Italic', 'Liberation Sans';font-style:italic;font-size:11.784px;fill:#8a8a8a;">electricity selling price</text><g transform="matrix(0.490998,0,0,0.490998,-5232.01,-930.472)"><text x="11125px" y="2925.41px" style="font-family:'LiberationSans-Italic', 'Liberation Sans';font-style:italic;font-size:24px;fill:#8a8a8a;">electricity</text><g transform="matrix(24,0,0,24,11245,2950.19)"></g><text x="11111.6px" y="2950.19px" style="font-family:'LiberationSans-Italic', 'Liberation Sans';font-style:italic;font-size:24px;fill:#8a8a8a;">selling price</text></g><g transform="matrix(11.7839,0,0,11.7839,628.478,542.713)"></g><text x="537.417px" y="542.713px" style="font-family:'LiberationSans-Italic', 'Liberation Sans';font-style:italic;font-size:11.784px;fill:#8a8a8a;">charging demand</text><path id="F" d="M524.645,538.444l-18.074,-18.074l-74.34,-0l-18.074,18.074l18.074,18.074l74.34,-0l18.074,-18.074Z" style="fill:#dfdfdf;"/><clipPath id="_clip13"><path d="M524.645,538.444l-18.074,-18.074l-74.34,-0l-18.074,18.074l18.074,18.074l74.34,-0l18.074,-18.074Z"/></clipPath><g clip-path="url(#_clip13)"><g transform="matrix(23.5679,0,0,23.5679,473.325,546.983)"></g><text x="465.477px" y="546.983px" style="font-family:'LiberationSans-BoldItalic', 'Liberation Sans';font-weight:700;font-style:italic;font-size:23.568px;fill:#fff;">f</text></g><path id="F1" serif:id="F" d="M424.308,834.856l-18.074,-18.074l-74.34,-0l-18.074,18.074l18.074,18.074l74.34,0l18.074,-18.074Z" style="fill:#dfdfdf;"/><clipPath id="_clip14"><path d="M424.308,834.856l-18.074,-18.074l-74.34,-0l-18.074,18.074l18.074,18.074l74.34,0l18.074,-18.074Z"/></clipPath><g clip-path="url(#_clip14)"><g transform="matrix(23.5679,0,0,23.5679,372.988,843.395)"></g><text x="365.14px" y="843.395px" style="font-family:'LiberationSans-BoldItalic', 'Liberation Sans';font-weight:700;font-style:italic;font-size:23.568px;fill:#fff;">f</text></g><g><path d="M369.25,816.782l0,-71.435l-104.298,0l-0,-71.435" style="fill:none;stroke:#dfdfdf;stroke-width:4px;"/><path d="M369.064,745.347l104.89,0l-0,-71.435" style="fill:none;stroke:#dfdfdf;stroke-width:4px;"/><path d="M369.437,745.347l-0.373,-71.435" style="fill:none;stroke:#dfdfdf;stroke-width:4px;"/></g><path d="M189.147,479.945l6.657,10.849l-10.848,6.656" style="fill:none;stroke:#272727;stroke-width:4px;stroke-linejoin:miter;stroke-miterlimit:10;"/><path d="M301.102,702.581c-24.998,33.615 -65.813,55.17 -111.502,54.343c-74.392,-1.347 -129.596,-61.537 -132.402,-134.295c-2.574,-66.743 63.006,-148.764 138.606,-131.835" style="fill:none;stroke:#272727;stroke-width:4px;"/></svg>