<?xml version="1.0" encoding="UTF-8" standalone="no"?><!DOCTYPE svg PUBLIC "-//W3C//DTD SVG 1.1//EN" "http://www.w3.org/Graphics/SVG/1.1/DTD/svg11.dtd"><svg width="100%" height="100%" viewBox="0 0 3511 4800" version="1.1" xmlns="http://www.w3.org/2000/svg" xmlns:xlink="http://www.w3.org/1999/xlink" xml:space="preserve" xmlns:serif="http://www.serif.com/" style="fill-rule:evenodd;clip-rule:evenodd;stroke-linecap:round;stroke-linejoin:round;stroke-miterlimit:1.5;"><rect id="Co-optimization-2" serif:id="Co-optimization 2" x="0.578" y="1.464" width="3509.43" height="4798.46" style="fill:none;"/><g id="districts"><path d="M2107.52,164.461c7.326,4.236 11.839,12.052 11.839,20.507c0.003,31.377 -0.003,108.214 0.004,139.577c-0.003,8.468 -4.516,16.278 -11.846,20.51l-120.871,69.786c-7.33,4.232 -16.359,4.24 -23.685,0.003c-27.167,-15.682 -93.704,-54.101 -120.876,-69.792c-7.321,-4.227 -11.834,-12.043 -11.839,-20.506c0.002,-31.369 -0.001,-108.201 0.001,-139.569c-0.006,-8.463 4.51,-16.287 11.84,-20.519l120.872,-69.785c7.33,-4.232 16.355,-4.227 23.69,0.005c27.158,15.687 93.704,54.101 120.871,69.783Z" style="fill:#911ae6;"/><clipPath id="_clip1"><path d="M2107.52,164.461c7.326,4.236 11.839,12.052 11.839,20.507c0.003,31.377 -0.003,108.214 0.004,139.577c-0.003,8.468 -4.516,16.278 -11.846,20.51l-120.871,69.786c-7.33,4.232 -16.359,4.24 -23.685,0.003c-27.167,-15.682 -93.704,-54.101 -120.876,-69.792c-7.321,-4.227 -11.834,-12.043 -11.839,-20.506c0.002,-31.369 -0.001,-108.201 0.001,-139.569c-0.006,-8.463 4.51,-16.287 11.84,-20.519l120.872,-69.785c7.33,-4.232 16.355,-4.227 23.69,0.005c27.158,15.687 93.704,54.101 120.871,69.783Z"/></clipPath><g clip-path="url(#_clip1)"><g transform="matrix(98.1995,0,0,98.1995,2010.27,290.338)"></g><text x="1939.35px" y="290.338px" style="font-family:'LiberationSans-Bold', 'Liberation Sans';font-weight:700;font-size:98.2px;fill:#c88cf2;">C</text></g><path d="M1236.68,164.461c7.327,4.236 11.839,12.052 11.839,20.507c0.003,31.377 -0.002,108.214 0.004,139.577c-0.003,8.468 -4.515,16.278 -11.845,20.51l-120.872,69.786c-7.33,4.232 -16.358,4.24 -23.685,0.003c-27.167,-15.682 -93.704,-54.101 -120.876,-69.792c-7.321,-4.227 -11.834,-12.043 -11.839,-20.506c0.002,-31.369 -0.001,-108.201 0.001,-139.569c-0.005,-8.463 4.511,-16.287 11.841,-20.519l120.871,-69.785c7.33,-4.232 16.355,-4.227 23.69,0.005c27.159,15.687 93.704,54.101 120.871,69.783Z" style="fill:#e9b22c;"/><clipPath id="_clip2"><path d="M1236.68,164.461c7.327,4.236 11.839,12.052 11.839,20.507c0.003,31.377 -0.002,108.214 0.004,139.577c-0.003,8.468 -4.515,16.278 -11.845,20.51l-120.872,69.786c-7.33,4.232 -16.358,4.24 -23.685,0.003c-27.167,-15.682 -93.704,-54.101 -120.876,-69.792c-7.321,-4.227 -11.834,-12.043 -11.839,-20.506c0.002,-31.369 -0.001,-108.201 0.001,-139.569c-0.005,-8.463 4.511,-16.287 11.841,-20.519l120.871,-69.785c7.33,-4.232 16.355,-4.227 23.69,0.005c27.159,15.687 93.704,54.101 120.871,69.783Z"/></clipPath><g clip-path="url(#_clip2)"><g transform="matrix(98.1995,0,0,98.1995,1139.42,290.338)"></g><text x="1068.51px" y="290.338px" style="font-family:'LiberationSans-Bold', 'Liberation Sans';font-weight:700;font-size:98.2px;fill:#f3d58c;">A</text></g><path d="M1673.87,164.461c7.327,4.236 11.84,12.052 11.84,20.507c0.003,31.377 -0.003,108.214 0.004,139.577c-0.003,8.468 -4.516,16.278 -11.846,20.51l-120.871,69.786c-7.33,4.232 -16.359,4.24 -23.685,0.003c-27.167,-15.682 -93.704,-54.101 -120.876,-69.792c-7.322,-4.227 -11.834,-12.043 -11.839,-20.506c0.002,-31.369 -0.001,-108.201 0.001,-139.569c-0.006,-8.463 4.51,-16.287 11.84,-20.519l120.872,-69.785c7.33,-4.232 16.355,-4.227 23.69,0.005c27.158,15.687 93.704,54.101 120.87,69.783Z" style="fill:#a7ea44;"/><clipPath id="_clip3"><path d="M1673.87,164.461c7.327,4.236 11.84,12.052 11.84,20.507c0.003,31.377 -0.003,108.214 0.004,139.577c-0.003,8.468 -4.516,16.278 -11.846,20.51l-120.871,69.786c-7.33,4.232 -16.359,4.24 -23.685,0.003c-27.167,-15.682 -93.704,-54.101 -120.876,-69.792c-7.322,-4.227 -11.834,-12.043 -11.839,-20.506c0.002,-31.369 -0.001,-108.201 0.001,-139.569c-0.006,-8.463 4.51,-16.287 11.84,-20.519l120.872,-69.785c7.33,-4.232 16.355,-4.227 23.69,0.005c27.158,15.687 93.704,54.101 120.87,69.783Z"/></clipPath><g clip-path="url(#_clip3)"><text x="1505.69px" y="290.338px" style="font-family:'LiberationSans-Bold', 'Liberation Sans';font-weight:700;font-size:98.2px;fill:#c9f28c;">B</text></g></g><g id="city"><path d="M1483.31,4335.43c2.183,-3.775 6.21,-6.1 10.566,-6.1c16.166,-0.001 55.755,0.002 71.915,-0.002c4.363,0.002 8.387,2.327 10.567,6.103l35.956,62.277c2.18,3.777 2.184,8.429 0.002,12.204c-8.08,13.997 -27.875,48.279 -35.959,62.279c-2.179,3.772 -6.206,6.097 -10.566,6.1c-16.162,-0.001 -55.749,0 -71.911,-0.001c-4.36,0.003 -8.391,-2.324 -10.572,-6.1l-35.955,-62.277c-2.181,-3.777 -2.178,-8.427 0.002,-12.206c8.083,-13.993 27.875,-48.279 35.955,-62.277Z" style="fill:#911ae6;stroke:#fff;stroke-width:1.68px;"/><path d="M1612.8,4409.91c2.183,-3.775 6.21,-6.1 10.566,-6.1c16.167,-0.002 55.755,0.001 71.915,-0.002c4.363,0.001 8.387,2.326 10.568,6.103l35.955,62.277c2.181,3.776 2.185,8.428 0.002,12.203c-8.08,13.998 -27.875,48.279 -35.959,62.279c-2.178,3.773 -6.205,6.098 -10.566,6.1c-16.162,-0.001 -55.748,0.001 -71.91,-0c-4.361,0.003 -8.392,-2.324 -10.572,-6.101l-35.956,-62.277c-2.18,-3.776 -2.178,-8.426 0.003,-12.206c8.082,-13.993 27.874,-48.279 35.954,-62.276Z" style="fill:#911ae6;stroke:#fff;stroke-width:4.17px;"/><path d="M1354.41,4409.91c2.183,-3.775 6.21,-6.1 10.566,-6.1c16.167,-0.002 55.755,0.001 71.915,-0.002c4.363,0.001 8.387,2.326 10.568,6.103l35.955,62.277c2.181,3.776 2.185,8.428 0.002,12.203c-8.08,13.998 -27.875,48.279 -35.959,62.279c-2.178,3.773 -6.205,6.098 -10.566,6.1c-16.162,-0.001 -55.748,0.001 -71.91,-0c-4.361,0.003 -8.392,-2.324 -10.572,-6.101l-35.956,-62.277c-2.18,-3.776 -2.178,-8.426 0.003,-12.206c8.082,-13.993 27.874,-48.279 35.954,-62.276Z" style="fill:#e9b22c;stroke:#fff;stroke-width:4.17px;"/><path d="M1354.41,4260.94c2.183,-3.775 6.21,-6.1 10.566,-6.1c16.167,-0.002 55.755,0.001 71.915,-0.002c4.363,0.001 8.387,2.326 10.568,6.103l35.955,62.277c2.181,3.777 2.185,8.428 0.002,12.203c-8.08,13.998 -27.875,48.28 -35.959,62.279c-2.178,3.773 -6.205,6.098 -10.566,6.101c-16.162,-0.001 -55.748,0 -71.91,-0.001c-4.361,0.003 -8.392,-2.324 -10.572,-6.101l-35.956,-62.277c-2.18,-3.776 -2.178,-8.426 0.003,-12.206c8.082,-13.992 27.874,-48.279 35.954,-62.276Z" style="fill:#e9b22c;stroke:#fff;stroke-width:4.17px;"/><path d="M1483.31,4484.39c2.183,-3.775 6.21,-6.1 10.566,-6.1c16.166,-0.002 55.755,0.001 71.915,-0.002c4.363,0.002 8.387,2.327 10.567,6.103l35.956,62.277c2.18,3.777 2.184,8.429 0.002,12.204c-8.08,13.997 -27.875,48.279 -35.959,62.279c-2.179,3.772 -6.206,6.097 -10.566,6.1c-16.162,-0.001 -55.749,0 -71.911,-0.001c-4.36,0.003 -8.391,-2.324 -10.572,-6.1l-35.955,-62.277c-2.181,-3.777 -2.178,-8.427 0.002,-12.206c8.083,-13.993 27.875,-48.28 35.955,-62.277Z" style="fill:#a7ea44;stroke:#fff;stroke-width:4.17px;"/><path d="M1612.8,4260.94c2.183,-3.775 6.21,-6.1 10.566,-6.1c16.167,-0.002 55.755,0.001 71.915,-0.002c4.363,0.001 8.387,2.326 10.568,6.103l35.955,62.277c2.181,3.777 2.185,8.428 0.002,12.203c-8.08,13.998 -27.875,48.28 -35.959,62.279c-2.178,3.773 -6.205,6.098 -10.566,6.101c-16.162,-0.001 -55.748,0 -71.91,-0.001c-4.361,0.003 -8.392,-2.324 -10.572,-6.101l-35.956,-62.277c-2.18,-3.776 -2.178,-8.426 0.003,-12.206c8.082,-13.992 27.874,-48.279 35.954,-62.276Z" style="fill:#a7ea44;stroke:#fff;stroke-width:4.17px;"/><path d="M1483.31,4335.43c2.183,-3.775 6.21,-6.1 10.566,-6.1c16.166,-0.001 55.755,0.002 71.915,-0.002c4.363,0.002 8.387,2.327 10.567,6.103l35.956,62.277c2.18,3.777 2.184,8.429 0.002,12.204c-8.08,13.997 -27.875,48.279 -35.959,62.279c-2.179,3.772 -6.206,6.097 -10.566,6.1c-16.162,-0.001 -55.749,0 -71.911,-0.001c-4.36,0.003 -8.391,-2.324 -10.572,-6.1l-35.955,-62.277c-2.181,-3.777 -2.178,-8.427 0.002,-12.206c8.083,-13.993 27.875,-48.279 35.955,-62.277Z" style="fill:#911ae6;stroke:#fff;stroke-width:4.17px;"/><path d="M1483.31,4186.46c2.183,-3.775 6.21,-6.1 10.566,-6.1c16.166,-0.001 55.755,0.002 71.915,-0.002c4.363,0.002 8.387,2.327 10.567,6.104l35.956,62.277c2.18,3.776 2.184,8.428 0.002,12.203c-8.08,13.997 -27.875,48.279 -35.959,62.279c-2.179,3.772 -6.206,6.097 -10.566,6.1c-16.162,-0.001 -55.749,0.001 -71.911,-0c-4.36,0.002 -8.391,-2.325 -10.572,-6.101l-35.955,-62.277c-2.181,-3.777 -2.178,-8.427 0.002,-12.206c8.083,-13.993 27.875,-48.279 35.955,-62.277Z" style="fill:#911ae6;stroke:#fff;stroke-width:4.17px;"/></g><g id="initialization"><path d="M2178.92,759.147l0,194.584c0,3.427 -2.782,6.21 -6.21,6.21l-395.813,-0c-3.428,-0 -6.211,-2.783 -6.211,-6.21l0,-194.584c0,-3.428 2.783,-6.21 6.211,-6.21l395.813,-0c3.428,-0 6.21,2.782 6.21,6.21Z" style="fill:#dfdfdf;"/><clipPath id="_clip4"><path d="M2178.92,759.147l0,194.584c0,3.427 -2.782,6.21 -6.21,6.21l-395.813,-0c-3.428,-0 -6.211,-2.783 -6.211,-6.21l0,-194.584c0,-3.428 2.783,-6.21 6.211,-6.21l395.813,-0c3.428,-0 6.21,2.782 6.21,6.21Z"/></clipPath><g clip-path="url(#_clip4)"><g transform="matrix(98.1995,0,0,98.1995,2116.66,892.017)"></g><text x="1832.95px" y="892.017px" style="font-family:'LiberationSans-Bold', 'Liberation Sans';font-weight:700;font-size:98.2px;fill:#fff;">REHO</text></g><path d="M2012.31,650.76l-37.5,37.5l-37.5,-37.5" style="fill:none;stroke:#dfdfdf;stroke-width:16.67px;stroke-linejoin:miter;stroke-miterlimit:10;"/><path d="M1974.81,461.98l0,226.28" style="fill:none;stroke:#dfdfdf;stroke-width:16.67px;"/><path d="M1743.44,759.147l0,194.584c0,3.427 -2.782,6.21 -6.21,6.21l-395.813,-0c-3.428,-0 -6.211,-2.783 -6.211,-6.21l0,-194.584c0,-3.428 2.783,-6.21 6.211,-6.21l395.813,-0c3.428,-0 6.21,2.782 6.21,6.21Z" style="fill:#dfdfdf;"/><clipPath id="_clip5"><path d="M1743.44,759.147l0,194.584c0,3.427 -2.782,6.21 -6.21,6.21l-395.813,-0c-3.428,-0 -6.211,-2.783 -6.211,-6.21l0,-194.584c0,-3.428 2.783,-6.21 6.211,-6.21l395.813,-0c3.428,-0 6.21,2.782 6.21,6.21Z"/></clipPath><g clip-path="url(#_clip5)"><g transform="matrix(98.1995,0,0,98.1995,1681.18,892.017)"></g><text x="1397.46px" y="892.017px" style="font-family:'LiberationSans-Bold', 'Liberation Sans';font-weight:700;font-size:98.2px;fill:#fff;">REHO</text></g><path d="M1576.82,650.76l-37.5,37.5l-37.5,-37.5" style="fill:none;stroke:#dfdfdf;stroke-width:16.67px;stroke-linejoin:miter;stroke-miterlimit:10;"/><path d="M1539.32,461.98l0,226.28" style="fill:none;stroke:#dfdfdf;stroke-width:16.67px;"/><path d="M1308.08,759.147l-0,194.584c-0,3.427 -2.783,6.21 -6.211,6.21l-395.813,-0c-3.428,-0 -6.21,-2.783 -6.21,-6.21l-0,-194.584c-0,-3.428 2.782,-6.21 6.21,-6.21l395.813,-0c3.428,-0 6.211,2.782 6.211,6.21Z" style="fill:#dfdfdf;"/><clipPath id="_clip6"><path d="M1308.08,759.147l-0,194.584c-0,3.427 -2.783,6.21 -6.211,6.21l-395.813,-0c-3.428,-0 -6.21,-2.783 -6.21,-6.21l-0,-194.584c-0,-3.428 2.782,-6.21 6.21,-6.21l395.813,-0c3.428,-0 6.211,2.782 6.211,6.21Z"/></clipPath><g clip-path="url(#_clip6)"><g transform="matrix(98.1995,0,0,98.1995,1245.82,892.017)"></g><text x="962.11px" y="892.017px" style="font-family:'LiberationSans-Bold', 'Liberation Sans';font-weight:700;font-size:98.2px;fill:#fff;">REHO</text></g><path d="M1141.47,650.76l-37.5,37.5l-37.5,-37.5" style="fill:none;stroke:#dfdfdf;stroke-width:16.67px;stroke-linejoin:miter;stroke-miterlimit:10;"/><path d="M1103.97,461.98l-0,226.28" style="fill:none;stroke:#dfdfdf;stroke-width:16.67px;"/></g><g id="optim1"><path d="M1539.39,1375.51l0,94.698l-435.42,-0l-0,73.15" style="fill:none;stroke:#dfdfdf;stroke-width:16.67px;stroke-dasharray:16.67,33.33,0,0;"/><path d="M1539.39,1375.51l0,94.698l435.42,-0l0,73.15" style="fill:none;stroke:#dfdfdf;stroke-width:16.67px;stroke-dasharray:16.67,33.33,0,0;"/><path d="M1539.39,1375.51l0,94.698l0,-0l0,73.15" style="fill:none;stroke:#dfdfdf;stroke-width:16.67px;stroke-dasharray:16.67,33.33,0,0;"/><path d="M2178.92,1549.57l0,194.585c0,3.427 -2.782,6.21 -6.21,6.21l-395.813,-0c-3.428,-0 -6.211,-2.783 -6.211,-6.21l0,-194.585c0,-3.427 2.783,-6.21 6.211,-6.21l395.813,0c3.428,0 6.21,2.783 6.21,6.21Z" style="fill:#dfdfdf;"/><clipPath id="_clip7"><path d="M2178.92,1549.57l0,194.585c0,3.427 -2.782,6.21 -6.21,6.21l-395.813,-0c-3.428,-0 -6.211,-2.783 -6.211,-6.21l0,-194.585c0,-3.427 2.783,-6.21 6.211,-6.21l395.813,0c3.428,0 6.21,2.783 6.21,6.21Z"/></clipPath><g clip-path="url(#_clip7)"><g transform="matrix(98.1995,0,0,98.1995,2116.66,1682.44)"></g><text x="1832.95px" y="1682.44px" style="font-family:'LiberationSans-Bold', 'Liberation Sans';font-weight:700;font-size:98.2px;fill:#fff;">REHO</text></g><path d="M1743.44,1549.57l0,194.585c0,3.427 -2.782,6.21 -6.21,6.21l-395.813,-0c-3.428,-0 -6.211,-2.783 -6.211,-6.21l0,-194.585c0,-3.427 2.783,-6.21 6.211,-6.21l395.813,0c3.428,0 6.21,2.783 6.21,6.21Z" style="fill:#dfdfdf;"/><clipPath id="_clip8"><path d="M1743.44,1549.57l0,194.585c0,3.427 -2.782,6.21 -6.21,6.21l-395.813,-0c-3.428,-0 -6.211,-2.783 -6.211,-6.21l0,-194.585c0,-3.427 2.783,-6.21 6.211,-6.21l395.813,0c3.428,0 6.21,2.783 6.21,6.21Z"/></clipPath><g clip-path="url(#_clip8)"><g transform="matrix(98.1995,0,0,98.1995,1681.18,1682.44)"></g><text x="1397.46px" y="1682.44px" style="font-family:'LiberationSans-Bold', 'Liberation Sans';font-weight:700;font-size:98.2px;fill:#fff;">REHO</text></g><path d="M1308.08,1549.57l-0,194.585c-0,3.427 -2.783,6.21 -6.211,6.21l-395.813,-0c-3.428,-0 -6.21,-2.783 -6.21,-6.21l-0,-194.585c-0,-3.427 2.782,-6.21 6.21,-6.21l395.813,0c3.428,0 6.211,2.783 6.211,6.21Z" style="fill:#dfdfdf;"/><clipPath id="_clip9"><path d="M1308.08,1549.57l-0,194.585c-0,3.427 -2.783,6.21 -6.211,6.21l-395.813,-0c-3.428,-0 -6.21,-2.783 -6.21,-6.21l-0,-194.585c-0,-3.427 2.782,-6.21 6.21,-6.21l395.813,0c3.428,0 6.211,2.783 6.211,6.21Z"/></clipPath><g clip-path="url(#_clip9)"><g transform="matrix(98.1995,0,0,98.1995,1245.82,1682.44)"></g><text x="962.11px" y="1682.44px" style="font-family:'LiberationSans-Bold', 'Liberation Sans';font-weight:700;font-size:98.2px;fill:#fff;">REHO</text></g><path d="M1743.5,1334.07l-0,40.163c-0,0.707 -0.574,1.281 -1.282,1.281l-405.67,0c-0.708,0 -1.282,-0.574 -1.282,-1.281l0,-40.163c0,-0.708 0.574,-1.282 1.282,-1.282l405.67,-0c0.708,-0 1.282,0.574 1.282,1.282Z" style="fill:#dfdfdf;"/></g><g id="optim11" serif:id="optim1"><g><path d="M1338.4,2136.83l0,358.679l-234.436,-0l-0,73.151" style="fill:none;stroke:#dfdfdf;stroke-width:16.67px;stroke-dasharray:16.67,33.33,0,0;"/><path d="M1539.39,2495.51l-189.064,-0l624.484,-0l0,73.151" style="fill:none;stroke:#dfdfdf;stroke-width:16.67px;stroke-dasharray:16.67,33.33,0,0;"/><path d="M1539.39,2495.51l0,-0l0,73.151" style="fill:none;stroke:#dfdfdf;stroke-width:16.67px;stroke-dasharray:16.67,33.33,0,0;"/></g><g><path d="M1955.84,2250.92l-0,158.869l-768.401,0l-0,158.87" style="fill:none;stroke:#dfdfdf;stroke-width:16.67px;"/><path d="M1533.13,2409.79l525.148,0l-0,158.87" style="fill:none;stroke:#dfdfdf;stroke-width:16.67px;"/><path d="M1655.25,2409.79l-1.553,158.87" style="fill:none;stroke:#dfdfdf;stroke-width:16.67px;"/></g><path d="M2178.92,2574.87l0,194.584c0,3.427 -2.782,6.21 -6.21,6.21l-395.813,-0c-3.428,-0 -6.211,-2.783 -6.211,-6.21l0,-194.584c0,-3.428 2.783,-6.21 6.211,-6.21l395.813,-0c3.428,-0 6.21,2.782 6.21,6.21Z" style="fill:#dfdfdf;"/><clipPath id="_clip10"><path d="M2178.92,2574.87l0,194.584c0,3.427 -2.782,6.21 -6.21,6.21l-395.813,-0c-3.428,-0 -6.211,-2.783 -6.211,-6.21l0,-194.584c0,-3.428 2.783,-6.21 6.211,-6.21l395.813,-0c3.428,-0 6.21,2.782 6.21,6.21Z"/></clipPath><g clip-path="url(#_clip10)"><g transform="matrix(98.1995,0,0,98.1995,2116.66,2707.74)"></g><text x="1832.95px" y="2707.74px" style="font-family:'LiberationSans-Bold', 'Liberation Sans';font-weight:700;font-size:98.2px;fill:#fff;">REHO</text></g><path d="M1743.44,2574.87l0,194.584c0,3.427 -2.782,6.21 -6.21,6.21l-395.813,-0c-3.428,-0 -6.211,-2.783 -6.211,-6.21l0,-194.584c0,-3.428 2.783,-6.21 6.211,-6.21l395.813,-0c3.428,-0 6.21,2.782 6.21,6.21Z" style="fill:#dfdfdf;"/><clipPath id="_clip11"><path d="M1743.44,2574.87l0,194.584c0,3.427 -2.782,6.21 -6.21,6.21l-395.813,-0c-3.428,-0 -6.211,-2.783 -6.211,-6.21l0,-194.584c0,-3.428 2.783,-6.21 6.211,-6.21l395.813,-0c3.428,-0 6.21,2.782 6.21,6.21Z"/></clipPath><g clip-path="url(#_clip11)"><g transform="matrix(98.1995,0,0,98.1995,1681.18,2707.74)"></g><text x="1397.46px" y="2707.74px" style="font-family:'LiberationSans-Bold', 'Liberation Sans';font-weight:700;font-size:98.2px;fill:#fff;">REHO</text></g><path d="M1308.08,2574.87l-0,194.584c-0,3.427 -2.783,6.21 -6.211,6.21l-395.813,-0c-3.428,-0 -6.21,-2.783 -6.21,-6.21l-0,-194.584c-0,-3.428 2.782,-6.21 6.21,-6.21l395.813,-0c3.428,-0 6.211,2.782 6.211,6.21Z" style="fill:#dfdfdf;"/><clipPath id="_clip12"><path d="M1308.08,2574.87l-0,194.584c-0,3.427 -2.783,6.21 -6.211,6.21l-395.813,-0c-3.428,-0 -6.21,-2.783 -6.21,-6.21l-0,-194.584c-0,-3.428 2.782,-6.21 6.21,-6.21l395.813,-0c3.428,-0 6.211,2.782 6.211,6.21Z"/></clipPath><g clip-path="url(#_clip12)"><g transform="matrix(98.1995,0,0,98.1995,1245.82,2707.74)"></g><text x="962.11px" y="2707.74px" style="font-family:'LiberationSans-Bold', 'Liberation Sans';font-weight:700;font-size:98.2px;fill:#fff;">REHO</text></g><path d="M1434.88,2095.38l-0,40.163c-0,0.708 -0.575,1.282 -1.282,1.282l-190.38,-0c-0.707,-0 -1.282,-0.574 -1.282,-1.282l0,-40.163c0,-0.707 0.575,-1.281 1.282,-1.281l190.38,-0c0.707,-0 1.282,0.574 1.282,1.281Z" style="fill:#dfdfdf;"/></g><path d="M1604.94,3971.65l-65.625,65.625l-65.625,-65.625" style="fill:none;stroke:#dfdfdf;stroke-width:29.17px;stroke-linejoin:miter;stroke-miterlimit:10;"/><path d="M1539.32,3694.72l0,342.556" style="fill:none;stroke:#dfdfdf;stroke-width:29.17px;"/><g id="prices"><path d="M1453.39,1238.09l-37.5,37.5l-37.5,-37.5" style="fill:none;stroke:#f1cc74;stroke-width:16.67px;stroke-linejoin:miter;stroke-miterlimit:10;"/><path d="M1103.97,989.396l-0,220.314l311.925,0c-0,0 -0,44.159 -0,65.882" style="fill:none;stroke:#f1cc74;stroke-width:16.67px;stroke-dasharray:16.67,33.33,0,0;"/><path d="M1700.52,1238.09l-37.5,37.5l-37.5,-37.5" style="fill:none;stroke:#ba65f7;stroke-width:16.67px;stroke-linejoin:miter;stroke-miterlimit:10;"/><path d="M1974.39,989.396l0,220.314l-311.373,0c-0,0 -0,44.159 -0,65.882" style="fill:none;stroke:#ba65f7;stroke-width:16.67px;stroke-dasharray:16.67,33.33,0,0;"/><rect x="1004.07" y="1031.88" width="199.796" height="38.738" style="fill:#fff;"/><clipPath id="_clip13"><rect x="1004.07" y="1031.88" width="199.796" height="38.738"/></clipPath><g clip-path="url(#_clip13)"><g transform="matrix(45.0081,0,0,45.0081,1198.5,1065.5)"></g><text x="1009.43px" y="1065.5px" style="font-family:'CourierNewPS-BoldMT', 'Courier New';font-weight:700;font-size:45.008px;fill:#272727;">CHF/kWh</text></g><path d="M1576.68,1238.09l-37.5,37.5l-37.5,-37.5" style="fill:none;stroke:#c6f185;stroke-width:16.67px;stroke-linejoin:miter;stroke-miterlimit:10;"/><path d="M1539.18,989.396l-0,286.196" style="fill:none;stroke:#c6f185;stroke-width:16.67px;stroke-dasharray:16.67,33.33,0,0;"/><rect x="1439.28" y="1031.88" width="199.796" height="38.738" style="fill:#fff;"/><clipPath id="_clip14"><rect x="1439.28" y="1031.88" width="199.796" height="38.738"/></clipPath><g clip-path="url(#_clip14)"><g transform="matrix(45.0081,0,0,45.0081,1633.71,1065.5)"></g><text x="1444.65px" y="1065.5px" style="font-family:'CourierNewPS-BoldMT', 'Courier New';font-weight:700;font-size:45.008px;fill:#272727;">CHF/kWh</text></g><rect x="1874.91" y="1031.88" width="199.796" height="38.738" style="fill:#fff;"/><clipPath id="_clip15"><rect x="1874.91" y="1031.88" width="199.796" height="38.738"/></clipPath><g clip-path="url(#_clip15)"><g transform="matrix(45.0081,0,0,45.0081,2069.34,1065.5)"></g><text x="1880.28px" y="1065.5px" style="font-family:'CourierNewPS-BoldMT', 'Courier New';font-weight:700;font-size:45.008px;fill:#272727;">CHF/kWh</text></g></g><g id="prices1" serif:id="prices"><path d="M999.663,1771.8l0,77.457l284.243,-0l0,227.567" style="fill:none;stroke:#f1cc74;stroke-width:16.67px;stroke-dasharray:16.67,33.33,0,0;"/><path d="M1870.09,1771.8l-0,77.457l-466.623,-0l0,227.567" style="fill:none;stroke:#ba65f7;stroke-width:16.67px;stroke-dasharray:16.67,33.33,0,0;"/><path d="M1434.88,1766.77c-0,6.251 -0,53.177 -0,53.177l-86.259,0l-0,256.876" style="fill:none;stroke:#c6f185;stroke-width:16.67px;stroke-dasharray:16.67,33.33,0,0;stroke-dashoffset:66.67;"/></g><g id="loads"><path d="M1187.44,1776.41l-0,191.081l654.892,-0l0,215.375" style="fill:none;stroke:#f1cc74;stroke-width:16.67px;"/><path d="M2057.86,1776.41l0,391.799" style="fill:none;stroke:#ba65f7;stroke-width:16.67px;"/><path d="M1622.65,1766.77c0,11.979 0,132.967 0,132.967l333.19,0l-0,268.469" style="fill:none;stroke:#c6f185;stroke-width:16.67px;"/></g><g transform="matrix(2.04582,0,0,2.04582,-20302.8,-5218.36)"><text x="11194.8px" y="2942.51px" style="font-family:'LiberationSans-Italic', 'Liberation Sans';font-style:italic;font-size:36.66px;fill:#272727;">initialisation</text><text x="11117.4px" y="2988.16px" style="font-family:'LiberationSans-Italic', 'Liberation Sans';font-style:italic;font-size:32.587px;fill:#8a8a8a;">no interactions between</text><g transform="matrix(32.5867,0,0,32.5867,11344.7,3021.81)"></g><text x="11234.3px" y="3021.81px" style="font-family:'LiberationSans-Italic', 'Liberation Sans';font-style:italic;font-size:32.587px;fill:#8a8a8a;">districts</text></g><g transform="matrix(2.04582,0,0,2.04582,-20299.9,-5819.04)"><text x="11188.5px" y="2959.09px" style="font-family:'LiberationSans-Italic', 'Liberation Sans';font-style:italic;font-size:36px;fill:#272727;">districts data</text><g transform="matrix(32.5867,0,0,32.5867,11470.6,3004.75)"></g><text x="11108.4px" y="3004.75px" style="font-family:'LiberationSans-Italic', 'Liberation Sans';font-style:italic;font-size:32.587px;fill:#8a8a8a;">after clustering of the city</text></g><g transform="matrix(2.04582,0,0,2.04582,-20244,-4426.94)"><text x="11155.3px" y="2938.98px" style="font-family:'LiberationSans-Italic', 'Liberation Sans';font-style:italic;font-size:36.66px;fill:#272727;">optimization 1</text><text x="11122.3px" y="2988.16px" style="font-family:'LiberationSans-Italic', 'Liberation Sans';font-style:italic;font-size:36px;fill:#8a8a8a;">EVs can charge in</text><g transform="matrix(36,0,0,36,11375.4,3025.34)"></g><text x="11161.3px" y="3025.34px" style="font-family:'LiberationSans-Italic', 'Liberation Sans';font-style:italic;font-size:36px;fill:#8a8a8a;">other districts</text></g><g transform="matrix(2.04582,0,0,2.04582,-20509.8,-3448.46)"><text x="11238.9px" y="2937.28px" style="font-family:'LiberationSans-Italic', 'Liberation Sans';font-style:italic;font-size:36.66px;fill:#272727;">optimization 2 to N</text><text x="11132.6px" y="2986.46px" style="font-family:'LiberationSans-Italic', 'Liberation Sans';font-style:italic;font-size:36px;fill:#8a8a8a;">EVs can charge in other districts</text><text x="11119.6px" y="3035.64px" style="font-family:'LiberationSans-Italic', 'Liberation Sans';font-style:italic;font-size:36px;fill:#8a8a8a;">+ each district supplies the others&apos;</text><g transform="matrix(36,0,0,36,11455.7,3072.81)"></g><text x="11325.6px" y="3072.81px" style="font-family:'LiberationSans-Italic', 'Liberation Sans';font-style:italic;font-size:36px;fill:#8a8a8a;">demand</text></g><g transform="matrix(2.04582,0,0,2.04582,-22682.7,-2770.74)"><text x="11264.4px" y="2961.19px" style="font-family:'LiberationSans-Italic', 'Liberation Sans';font-style:italic;font-size:36.66px;fill:#272727;">Repeat N times</text><text x="11140px" y="3011.05px" style="font-family:'LiberationSans-Italic', 'Liberation Sans';font-style:italic;font-size:36.66px;fill:#8a8a8a;">to reach convergence between</text><g transform="matrix(36.6601,0,0,36.6601,11550.7,3048.91)"></g><text x="11230.7px" y="3048.91px" style="font-family:'LiberationSans-Italic', 'Liberation Sans';font-style:italic;font-size:36.66px;fill:#8a8a8a;">demand and supply</text></g><g transform="matrix(2.04582,0,0,2.04582,-20926.1,-2258.66)"><text x="11332.9px" y="2942.26px" style="font-family:'LiberationSans-Italic', 'Liberation Sans';font-style:italic;font-size:36.66px;fill:#272727;">Extract results</text><text x="11154.2px" y="2992.12px" style="font-family:'LiberationSans-Italic', 'Liberation Sans';font-style:italic;font-size:36.66px;fill:#8a8a8a;">results of districts <tspan x="11446.2px 11470.7px " y="2992.12px 2992.12px ">A,</tspan> B and C can be</text><text x="11104.6px" y="3029.98px" style="font-family:'LiberationSans-Italic', 'Liberation Sans';font-style:italic;font-size:36.66px;fill:#8a8a8a;">aggregated through the scaling factors</text><text x="11740.5px" y="3029.98px" style="font-family:'LiberationSans-BoldItalic', 'Liberation Sans';font-weight:700;font-style:italic;font-size:36.66px;fill:#8a8a8a;">f</text><text x="11762.9px" y="3029.98px" style="font-family:'LiberationSans-Italic', 'Liberation Sans';font-style:italic;font-size:36.66px;fill:#8a8a8a;">to</text><g transform="matrix(36.6601,0,0,36.6601,11700.7,3067.84)"></g><text x="11197.4px" y="3067.84px" style="font-family:'LiberationSans-Italic', 'Liberation Sans';font-style:italic;font-size:36.66px;fill:#8a8a8a;">obtain results for the whole city</text></g><g transform="matrix(49.0998,0,0,49.0998,1261.37,1371.94)"></g><text x="783.85px" y="1371.94px" style="font-family:'LiberationSans-Italic', 'Liberation Sans';font-style:italic;font-size:49.1px;fill:#8a8a8a;">electricity selling price</text><g transform="matrix(2.04582,0,0,2.04582,-21800,-3876.97)"><text x="11125px" y="2925.41px" style="font-family:'LiberationSans-Italic', 'Liberation Sans';font-style:italic;font-size:24px;fill:#8a8a8a;">electricity</text><g transform="matrix(24,0,0,24,11245,2950.19)"></g><text x="11111.6px" y="2950.19px" style="font-family:'LiberationSans-Italic', 'Liberation Sans';font-style:italic;font-size:24px;fill:#8a8a8a;">selling price</text></g><g transform="matrix(49.0998,0,0,49.0998,2618.66,2261.3)"></g><text x="2239.24px" y="2261.3px" style="font-family:'LiberationSans-Italic', 'Liberation Sans';font-style:italic;font-size:49.1px;fill:#8a8a8a;">charging demand</text><path id="F" d="M2186.02,2243.52l-75.31,-75.309l-309.749,-0l-75.309,75.309l75.309,75.309l309.749,-0l75.31,-75.309Z" style="fill:#dfdfdf;"/><clipPath id="_clip16"><path d="M2186.02,2243.52l-75.31,-75.309l-309.749,-0l-75.309,75.309l75.309,75.309l309.749,-0l75.31,-75.309Z"/></clipPath><g clip-path="url(#_clip16)"><g transform="matrix(98.1995,0,0,98.1995,1972.19,2279.09)"></g><text x="1939.49px" y="2279.09px" style="font-family:'LiberationSans-BoldItalic', 'Liberation Sans';font-weight:700;font-style:italic;font-size:98.2px;fill:#fff;">f</text></g><path id="F1" serif:id="F" d="M1767.95,3478.57l-75.309,-75.309l-309.75,0l-75.309,75.309l75.309,75.309l309.75,0l75.309,-75.309Z" style="fill:#dfdfdf;"/><clipPath id="_clip17"><path d="M1767.95,3478.57l-75.309,-75.309l-309.75,0l-75.309,75.309l75.309,75.309l309.75,0l75.309,-75.309Z"/></clipPath><g clip-path="url(#_clip17)"><g transform="matrix(98.1995,0,0,98.1995,1554.12,3514.14)"></g><text x="1521.42px" y="3514.14px" style="font-family:'LiberationSans-BoldItalic', 'Liberation Sans';font-weight:700;font-style:italic;font-size:98.2px;fill:#fff;">f</text></g><g><path d="M1538.54,3403.26l0,-297.644l-434.576,-0l-0,-297.645" style="fill:none;stroke:#dfdfdf;stroke-width:16.67px;"/><path d="M1537.77,3105.61l437.04,-0l0,-297.645" style="fill:none;stroke:#dfdfdf;stroke-width:16.67px;"/><path d="M1539.32,3105.61l-1.552,-297.645" style="fill:none;stroke:#dfdfdf;stroke-width:16.67px;"/></g><path d="M788.114,1999.77l27.736,45.202l-45.202,27.736" style="fill:none;stroke:#272727;stroke-width:16.67px;stroke-linejoin:miter;stroke-miterlimit:10;"/><path d="M1254.59,2927.42c-104.159,140.063 -274.218,229.874 -464.591,226.427c-309.967,-5.613 -539.981,-256.403 -551.673,-559.561c-10.726,-278.096 262.523,-619.849 577.524,-549.314" style="fill:none;stroke:#272727;stroke-width:16.67px;"/></svg>